<?xml version="1.0" standalone="no"?>
<!DOCTYPE svg PUBLIC "-//W3C//DTD SVG 20010904//EN"
 "http://www.w3.org/TR/2001/REC-SVG-20010904/DTD/svg10.dtd">
<svg version="1.0" xmlns="http://www.w3.org/2000/svg"
 width="880.000000pt" height="880.000000pt" viewBox="0 0 880.000000 880.000000"
 preserveAspectRatio="xMidYMid meet">
<metadata>
Created by potrace 1.14, written by Peter Selinger 2001-2017
</metadata>
<g transform="translate(0.000000,880.000000) scale(0.100000,-0.100000)"
fill="#000000" stroke="none">
<path d="M3993 6715 c-30 -24 -133 -148 -133 -160 0 -4 -20 -31 -44 -60 -52
-65 -75 -109 -117 -235 -55 -167 -40 -261 64 -375 56 -62 130 -111 202 -135
19 -6 37 -20 40 -31 4 -10 11 -19 16 -19 16 0 62 -59 96 -123 49 -90 47 -156
-8 -274 -23 -48 -52 -102 -65 -120 -13 -17 -24 -34 -24 -37 0 -3 -25 -31 -55
-63 -30 -32 -55 -64 -55 -70 0 -25 37 -12 72 25 19 20 69 67 110 104 41 37 94
96 116 130 23 35 48 70 56 78 7 8 28 46 46 83 30 63 32 76 32 166 -1 53 -6
109 -11 124 -6 15 -8 27 -5 27 9 0 -46 92 -79 131 -18 21 -37 39 -44 39 -6 0
-18 9 -26 20 -7 11 -31 33 -53 49 -40 29 -52 41 -103 100 -66 76 -102 246 -81
381 7 44 16 80 20 80 4 0 15 26 25 58 10 31 25 67 32 79 8 12 13 29 11 37 -2
13 -9 11 -35 -9z"/>
<path d="M3206 6278 c-24 -13 -75 -70 -101 -113 -11 -17 -33 -51 -48 -74 -15
-23 -33 -54 -40 -69 -6 -15 -17 -32 -23 -39 -19 -20 -36 -143 -29 -206 6 -51
13 -65 52 -108 25 -27 73 -64 107 -83 118 -67 168 -119 184 -194 11 -46 -9
-150 -38 -199 -11 -19 -20 -40 -20 -48 0 -8 -27 -40 -60 -72 -33 -32 -60 -61
-60 -64 0 -4 7 -10 15 -13 11 -4 43 21 98 73 129 125 133 129 178 220 37 72
44 97 47 157 4 62 1 78 -21 115 -52 94 -69 115 -115 149 -98 73 -125 108 -156
208 -28 87 -29 95 -17 145 19 75 51 170 63 184 5 7 8 19 6 27 -2 12 -7 12 -22
4z"/>
<path d="M4742 6228 c-29 -33 -62 -79 -74 -102 -11 -23 -24 -43 -28 -46 -3 -3
-20 -30 -37 -60 -41 -73 -58 -176 -44 -256 10 -53 17 -64 64 -107 28 -27 71
-58 94 -69 23 -11 47 -26 54 -34 6 -8 17 -14 23 -14 18 0 71 -63 95 -113 20
-40 21 -51 11 -109 -10 -66 -31 -119 -58 -150 -8 -10 -12 -18 -8 -18 12 0 -29
-54 -71 -93 -48 -44 -53 -57 -23 -57 28 0 247 220 256 257 4 15 10 30 14 33 4
3 17 27 29 53 34 75 31 151 -8 232 -41 83 -70 117 -142 166 -64 43 -71 52
-111 154 -35 87 -38 185 -9 243 10 20 22 53 26 72 4 19 14 45 22 57 14 21 14
23 -3 23 -11 0 -42 -27 -72 -62z"/>
<path d="M5116 4673 c-1 -1 -644 -4 -1429 -6 -969 -2 -1431 -7 -1438 -14 -5
-5 -19 -86 -30 -179 -18 -144 -20 -201 -14 -384 6 -201 15 -288 35 -335 9 -22
47 -174 55 -219 7 -43 55 -166 82 -208 12 -21 23 -46 23 -56 0 -15 19 -50 103
-187 26 -42 91 -141 101 -152 6 -7 22 -27 36 -44 14 -18 41 -51 60 -73 19 -22
40 -47 45 -54 15 -22 58 -64 90 -92 17 -13 59 -50 95 -80 57 -49 243 -180 256
-180 3 0 14 -9 26 -20 12 -11 38 -25 60 -32 38 -13 -56 -16 -619 -18 -83 0
-93 -2 -93 -18 0 -44 132 -125 223 -136 21 -3 70 -15 150 -37 30 -8 37 -14 37
-35 0 -14 11 -36 25 -49 29 -30 -82 -27 1100 -30 619 -1 908 2 925 9 38 16 61
48 57 77 -3 26 -1 27 53 33 31 4 65 12 76 20 10 7 44 18 75 25 31 6 65 18 75
26 11 8 27 15 38 15 47 0 138 90 103 102 -6 3 -163 4 -347 3 -184 -1 -326 0
-316 3 28 6 130 66 211 123 39 27 86 60 105 73 19 13 76 62 125 110 50 48 98
92 108 97 9 5 17 14 17 19 0 6 8 18 18 28 9 10 31 36 47 57 17 20 48 58 70 84
22 25 53 72 69 102 l28 56 326 -2 c322 -2 409 4 436 30 7 7 29 20 48 28 38 16
119 106 135 152 23 62 26 119 24 470 -2 299 -5 369 -18 413 -9 28 -20 52 -24
52 -4 0 -9 10 -13 23 -11 42 -101 124 -163 148 -52 20 -80 23 -269 27 l-212 4
-6 45 c-3 25 -6 62 -7 82 0 20 -5 51 -12 70 l-12 35 -373 0 c-206 1 -375 0
-376 -1z m1173 -547 c14 -15 16 -55 15 -352 0 -332 0 -335 -22 -357 -22 -22
-28 -22 -262 -22 -132 0 -240 2 -240 3 0 2 14 33 30 69 17 36 29 70 28 77 -3
17 13 100 22 111 15 19 60 251 57 297 0 7 1 54 1 103 l2 91 176 -2 c148 -2
179 -5 193 -18z"/>
</g>
</svg>
