<?xml version="1.0" standalone="no"?>
<!DOCTYPE svg PUBLIC "-//W3C//DTD SVG 20010904//EN"
 "http://www.w3.org/TR/2001/REC-SVG-20010904/DTD/svg10.dtd">
<svg version="1.0" xmlns="http://www.w3.org/2000/svg"
 width="981.000000pt" height="981.000000pt" viewBox="0 0 981.000000 981.000000"
 preserveAspectRatio="xMidYMid meet">
<metadata>
Created by potrace 1.14, written by Peter Selinger 2001-2017
</metadata>
<g transform="translate(0.000000,981.000000) scale(0.100000,-0.100000)"
fill="#000000" stroke="none">
<path d="M5475 9786 c-444 -116 -718 -413 -802 -866 -26 -144 -24 -411 5 -557
41 -205 106 -363 180 -438 20 -21 114 -95 207 -165 170 -128 308 -258 374
-353 48 -70 108 -203 127 -283 24 -97 24 -293 0 -404 -52 -243 -196 -544 -392
-821 -36 -50 -63 -93 -61 -96 6 -5 214 147 337 245 126 101 382 357 453 454
257 346 318 665 196 1016 -49 137 -140 305 -279 508 -289 423 -360 534 -409
630 -64 129 -107 256 -121 363 -33 244 69 507 289 744 l44 47 -29 0 c-16 -1
-69 -12 -119 -24z"/>
<path d="M4114 9055 c-285 -73 -469 -215 -585 -451 -61 -126 -90 -252 -96
-424 -8 -219 25 -406 97 -556 39 -80 79 -120 225 -226 206 -148 312 -259 374
-393 130 -275 52 -625 -233 -1054 -52 -80 -94 -146 -92 -148 2 -2 52 32 112
76 327 237 568 494 670 716 104 226 98 472 -19 718 -55 116 -117 214 -277 442
-149 213 -194 283 -247 390 -125 249 -128 466 -12 674 39 70 118 177 158 215
30 29 39 47 24 46 -5 -1 -49 -12 -99 -25z"/>
<path d="M1588 5481 c-165 -53 -320 -232 -374 -431 -57 -210 15 -948 151
-1547 289 -1270 861 -2182 1662 -2644 l85 -49 1530 0 1530 0 136 138 c257 258
499 570 848 1095 l78 118 36 -6 c318 -61 674 -37 985 66 645 215 1118 739
1196 1327 17 127 6 324 -25 447 -58 232 -164 413 -344 587 -188 181 -433 307
-723 372 -63 14 -145 28 -184 31 -135 12 -131 10 -144 63 -7 26 -30 85 -53
131 -54 113 -172 235 -274 283 l-69 33 -2995 2 c-2883 2 -2997 1 -3052 -16z
m1209 -598 c-3 -10 -19 -56 -36 -103 -72 -203 -96 -415 -88 -774 7 -313 29
-491 104 -831 100 -456 307 -1044 543 -1540 34 -71 79 -167 100 -212 l38 -82
-49 30 c-310 182 -590 463 -800 802 -322 517 -534 1218 -614 2027 -18 183 -36
614 -28 665 l6 35 414 0 c391 0 415 -1 410 -17z m5338 -472 c168 -33 334 -121
455 -241 147 -147 209 -287 217 -490 6 -134 -9 -218 -58 -336 -124 -299 -444
-553 -789 -629 -83 -18 -337 -32 -394 -21 l-36 7 74 147 c243 486 394 1007
432 1494 6 83 8 88 28 83 11 -2 44 -8 71 -14z"/>
<path d="M340 517 c0 -260 141 -434 401 -495 69 -16 302 -17 3764 -17 3463 0
3694 1 3752 17 146 41 245 121 306 249 39 80 67 199 67 279 l0 50 -4145 0
-4145 0 0 -83z"/>
</g>
</svg>
